<svg xmlns="http://www.w3.org/2000/svg" viewBox="0 0 66.34 58.55"><defs><style>.cls-1{fill:#1d428a;}.cls-2{fill:#78be20;}.cls-3{fill:#0091da;}</style></defs><title>Asset 12</title><g id="Layer_2" data-name="Layer 2"><g id="Layer_1-2" data-name="Layer 1"><path class="cls-1" d="M6.37,44.21,2.52,31.67l33.34-7v0l-1.94-2L1.44,29.48a1.82,1.82,0,0,0-1.19.85,1.8,1.8,0,0,0-.17,1.45L4.29,45.47a1.79,1.79,0,0,0,.93,1.1,1.82,1.82,0,0,0,.79.18,1.77,1.77,0,0,0,.64-.12l31.4-11.86,2.1-.78.39-2.67-3.32,1.23Z"/><path class="cls-2" d="M17.64,2.63l23.59,24,.44-2.93L18.9.54a1.82,1.82,0,0,0-2.66.08L8.16,10a1.8,1.8,0,0,0,.28,2.62L22,22.71l3.09-.65-14.74-11Z"/><path class="cls-3" d="M47.36,7.23,44,6a1.78,1.78,0,0,0-2.22,1l-4.11,9.16L39.4,18l4.27-9.52,2.47.86L39.46,55.92,25.22,49.59l3.86-8.85L26,41.84l-3.2,7.31a1.81,1.81,0,0,0,.91,2.37l15.46,6.87a1.75,1.75,0,0,0,.73.16,1.8,1.8,0,0,0,.87-.23A1.76,1.76,0,0,0,41.7,57L48.55,9.18A1.8,1.8,0,0,0,47.36,7.23Z"/><path class="cls-2" d="M55.76,38,48,30.11l-.42,3,6.23,6.34-1.67,3.06-5.33-4-.38,2.68,4.8,3.61a1.8,1.8,0,0,0,1.09.36,1.64,1.64,0,0,0,.38,0,1.8,1.8,0,0,0,1.2-.9l2.19-4A1.83,1.83,0,0,0,55.76,38Z"/><path class="cls-1" d="M66.25,22.5l-1.38-4.4a1.79,1.79,0,0,0-2.09-1.23L49.45,19.74l-.36,2.5L62.77,19.3l1.06,3.4L48.2,28.49l-.38,2.66,17.34-6.42A1.8,1.8,0,0,0,66.25,22.5Z"/></g></g></svg>