<?xml version="1.0" standalone="no"?>
<!DOCTYPE svg PUBLIC "-//W3C//DTD SVG 20010904//EN"
 "http://www.w3.org/TR/2001/REC-SVG-20010904/DTD/svg10.dtd">
<svg version="1.0" xmlns="http://www.w3.org/2000/svg"
 width="2029.000000pt" height="2029.000000pt" viewBox="0 0 2029.000000 2029.000000"
 preserveAspectRatio="xMidYMid meet">
<metadata>
Created by potrace 1.11, written by Peter Selinger 2001-2013
</metadata>
<g transform="translate(0.000000,2029.000000) scale(0.100000,-0.100000)"
fill="#000000" stroke="none">
<path d="M9867 20284 c-1 -1 -72 -4 -157 -8 -85 -4 -184 -9 -220 -11 -36 -2
-103 -7 -150 -10 -47 -3 -96 -8 -110 -10 -14 -2 -59 -6 -101 -10 -42 -3 -87
-8 -100 -10 -13 -2 -55 -6 -92 -10 -37 -3 -76 -8 -86 -10 -10 -2 -42 -6 -72
-10 -88 -11 -92 -12 -129 -19 -19 -3 -53 -8 -75 -11 -22 -3 -65 -10 -95 -15
-30 -5 -73 -12 -95 -16 -22 -3 -83 -15 -135 -25 -52 -11 -111 -22 -130 -25
-19 -3 -43 -7 -52 -10 -22 -7 -57 -14 -93 -20 -79 -14 -491 -119 -665 -169
-236 -68 -600 -189 -685 -226 -11 -5 -56 -22 -100 -38 -488 -177 -1133 -494
-1659 -814 -168 -102 -446 -284 -561 -367 -288 -209 -517 -385 -695 -536 -70
-60 -225 -196 -305 -268 -171 -154 -632 -622 -755 -766 -12 -14 -31 -36 -43
-50 -43 -49 -184 -215 -200 -235 -8 -11 -38 -47 -65 -80 -66 -80 -113 -142
-246 -320 -115 -156 -121 -164 -183 -255 -21 -30 -40 -57 -43 -60 -33 -31
-354 -546 -473 -760 -13 -25 -48 -88 -77 -140 -51 -90 -280 -545 -280 -554 0
-3 -18 -44 -40 -91 -22 -47 -40 -88 -40 -90 0 -2 -15 -36 -34 -77 -19 -40 -71
-167 -116 -283 -45 -115 -86 -219 -91 -230 -24 -55 -184 -552 -228 -705 -43
-152 -107 -395 -116 -440 -2 -8 -15 -67 -29 -130 -15 -63 -29 -127 -31 -143
-3 -15 -12 -59 -20 -97 -16 -76 -17 -82 -46 -250 -24 -138 -26 -152 -34 -210
-3 -25 -8 -56 -10 -70 -2 -14 -7 -45 -10 -70 -5 -41 -10 -77 -20 -150 -2 -14
-6 -52 -10 -85 -3 -33 -8 -78 -10 -100 -5 -39 -7 -72 -20 -220 -3 -38 -7 -90
-10 -115 -26 -275 -26 -1157 -1 -1410 2 -19 7 -82 11 -140 3 -58 8 -112 10
-120 2 -8 6 -51 10 -95 3 -44 8 -91 10 -105 2 -14 7 -50 10 -80 4 -30 8 -66
10 -80 2 -14 9 -63 15 -110 6 -47 13 -96 15 -110 3 -14 14 -79 25 -145 11 -66
22 -133 25 -150 3 -16 10 -50 15 -75 5 -25 12 -60 15 -78 4 -27 28 -138 40
-192 2 -8 13 -58 25 -110 34 -154 78 -325 121 -475 23 -77 42 -147 44 -155 15
-71 255 -759 295 -845 5 -11 38 -90 74 -175 103 -249 300 -665 393 -830 11
-19 41 -75 68 -125 26 -49 56 -102 67 -117 10 -14 18 -29 18 -33 0 -16 229
-385 373 -600 166 -248 416 -586 557 -755 21 -25 78 -92 126 -150 269 -322
689 -753 1008 -1035 13 -11 38 -34 57 -50 33 -29 231 -196 334 -280 181 -149
616 -466 775 -565 22 -14 98 -62 168 -106 153 -98 351 -217 458 -275 44 -23
111 -60 149 -81 94 -52 440 -224 545 -272 164 -74 186 -84 255 -114 130 -56
289 -119 430 -172 77 -28 149 -56 160 -60 129 -57 927 -290 1115 -326 14 -3
75 -16 135 -30 61 -14 126 -27 145 -30 19 -3 62 -11 95 -19 33 -7 78 -16 100
-19 22 -4 65 -11 95 -16 30 -5 71 -12 90 -15 19 -3 46 -8 60 -10 14 -2 43 -7
65 -9 22 -3 49 -7 60 -10 11 -2 47 -7 80 -10 33 -4 71 -9 85 -11 14 -2 48 -6
75 -10 28 -3 66 -8 85 -10 19 -3 60 -7 90 -10 30 -2 78 -7 105 -9 120 -12 295
-23 490 -32 275 -13 849 -7 1100 11 22 2 81 6 130 9 50 4 106 9 125 11 19 2
67 7 105 10 39 4 81 8 95 10 14 2 50 6 80 10 30 3 71 8 90 10 19 3 55 7 80 10
25 4 56 8 70 10 14 2 57 9 95 15 39 6 81 13 95 15 14 2 57 9 95 15 39 7 83 14
99 17 87 14 428 87 536 114 47 11 96 23 110 26 14 2 49 11 79 20 29 8 59 16
65 17 98 20 736 218 821 255 11 5 36 14 55 21 19 7 44 16 55 20 11 5 52 21 90
35 170 65 299 118 392 161 28 13 54 24 57 24 20 0 443 205 676 328 112 59 460
259 600 345 155 95 577 381 616 418 11 10 25 19 31 19 6 0 13 4 15 8 2 4 66
56 143 114 77 59 212 166 300 240 146 121 183 153 250 213 13 11 56 49 96 85
193 172 461 439 684 681 161 175 401 460 520 619 27 36 52 67 55 70 8 6 205
277 259 355 187 271 408 624 528 843 20 37 56 103 80 147 44 79 272 538 310
625 51 112 186 439 238 575 136 355 324 967 380 1235 2 8 8 33 13 55 6 22 13
52 16 68 3 15 7 35 10 45 3 9 7 28 10 42 3 14 21 104 40 200 33 168 38 195 51
285 3 22 8 47 10 55 2 8 7 35 10 60 6 48 16 116 20 140 2 8 6 44 10 80 4 36 8
72 10 80 2 8 6 44 9 80 4 36 9 76 11 90 2 14 7 59 10 100 3 41 8 91 10 110 2
19 7 80 10 135 4 55 8 118 10 140 16 154 21 631 11 950 -7 220 -9 245 -21 395
-4 44 -8 105 -10 136 -3 32 -7 80 -10 108 -13 125 -26 243 -30 271 -2 17 -7
53 -10 80 -14 109 -56 380 -70 448 -8 40 -17 88 -20 107 -5 33 -9 55 -20 110
-3 14 -10 45 -15 70 -16 84 -60 274 -86 374 -14 55 -27 107 -29 115 -20 97
-144 511 -211 706 -88 255 -231 624 -295 763 -16 35 -29 65 -29 67 0 8 -73
161 -180 380 -205 418 -392 741 -662 1146 -126 190 -395 562 -480 664 -9 11
-72 88 -140 170 -67 83 -127 155 -133 161 -15 16 -143 159 -166 185 -190 220
-596 616 -919 895 -187 162 -520 423 -700 549 -295 207 -590 399 -790 513 -19
11 -64 36 -100 57 -214 122 -573 307 -775 398 -191 86 -216 97 -220 97 -2 0
-28 11 -57 24 -344 157 -1079 403 -1496 501 -9 3 -66 16 -127 31 -60 14 -117
27 -125 29 -85 18 -322 65 -345 70 -16 2 -55 9 -85 15 -30 5 -68 12 -85 15
-16 2 -39 7 -50 9 -11 2 -40 7 -65 10 -25 3 -54 8 -65 10 -11 2 -42 7 -70 10
-27 4 -61 9 -75 11 -14 2 -52 6 -85 10 -33 3 -71 8 -85 10 -101 14 -381 41
-535 50 -228 14 -926 28 -938 19z"/>
</g>
</svg>
